<?xml version="1.0" encoding="utf-8"?>
<!DOCTYPE svg PUBLIC "-//W3C//DTD SVG 1.1//EN" "http://www.w3.org/Graphics/SVG/1.1/DTD/svg11.dtd">
<svg version="1.1" xmlns="http://www.w3.org/2000/svg" xmlns:xlink="http://www.w3.org/1999/xlink" stroke="none" x="0px" y="0px" viewBox="0 0 1000 1000" xml:space="preserve">
<g><g><path style="fill:#1976d2;" d="M990,548.7c0,10.9-11.4,23.9-49.9,36.1c-11.6-0.3-23.7-0.4-36.4-0.6c-56.1-0.6-121.6-2.1-191.7-2.4c-70.1-0.4-145-0.7-219.8-1.1c-4.2,0-8.3,0-12.5,0c4.1-7.6,7-16.2,10.4-24.9c15.7-63,9.6-119.7-24.8-176c-4.2-6.9-9.3-12.5-13.6-17.4c-0.4-0.5-0.7-0.8-1-1.2h31.8c12.6,0,36.8,3.6,68.2,9.9c-7.7,8-12.2,17.1-12.2,26.8c0,31.7,46.9,57.4,104.7,57.4c43.3,0,80.4-14.4,96.4-34.9c8.2,2.5,16.5,5.1,24.7,7.8C907.7,474.5,990,518.4,990,548.7z M42.6,584.8c-9.1-24.1-9.1-56.9-9.1-92.2c0-70.5,0-131.4,72.7-131.4H444c1,1.6,2,3.1,3,4.9c3.3,5.4,7.1,11.3,10.4,18.4c1.8,3.5,3.6,7.1,5.5,10.8c20.9,41.1,48.5,151.2-0.6,182.4c-23.5,14.9-69.2,2.8-95.3,2.7c-31.5-0.1-63.1,1.2-94.6,1.3c-70.1,0.4-135.6,1.8-191.7,2.5C67.4,584.4,54.7,584.6,42.6,584.8z M355.6,455.3c0,17.7,14.3,32,32,32h9.3c17.7,0,32-14.3,32-32c0-17.7-14.3-32-32-32h-9.3C370,423.2,355.6,437.6,355.6,455.3z M266,455.3c0,17.7,14.3,32,32,32h9.3c17.7,0,32-14.3,32-32c0-17.7-14.4-32-32-32H298C280.4,423.2,266,437.6,266,455.3z M176.4,455.3c0,17.7,14.3,32,32,32h9.3c17.7,0,32-14.3,32-32c0-17.7-14.3-32-32-32h-9.3C190.7,423.2,176.4,437.6,176.4,455.3z M86.8,455.3c0,17.7,14.3,32,32,32h9.3c17.7,0,32-14.3,32-32c0-17.7-14.3-32-32-32h-9.3C101.2,423.2,86.8,437.6,86.8,455.3z M46.1,592.6C56.1,612,74,624,106.2,624H444c1-1.6,2-3.1,3-4.8c3.3-5.5,7.1-11.5,10.5-18.5c0.7-1.3,1.4-2.8,2.1-4.2c-63.8-0.3-127.2-0.6-187.2-0.9c-70.2-0.3-135.6-1.8-191.7-2.5C68.7,593,57.2,592.8,46.1,592.6z M830.1,637.8c7.5-4.8,12.4-13,12.4-22.5c0-2.3-0.4-4.5-1-6.7c-0.2-0.7-0.4-1.3-0.6-1.9c-0.3-0.6-0.4-1.3-0.7-2c27.1-3.6,49.5-7.5,68-11.6c-1.7,0-3.2,0.1-4.8,0.1c-22.4,0.3-46.6,0.6-71.6,1.1c-37.8,0.6-77.9,1.2-120.1,1.4c-61.6,0.3-126.8,0.6-192.4,0.9c-9.1,0-18.2,0.1-27.3,0.1c-7,0-13.9-0.1-20.9-0.1c-2,3.1-4.1,6-6,8.9c-4.2,6.9-9.2,12.4-13.6,17.4c-0.4,0.4-0.7,0.8-1.1,1.2h31.8c5.6,0,16.4,0,30.8-0.2c0.3,0.7,0.4,1.4,0.7,2c0.3,0.6,0.7,1.3,1.1,1.9c1.3,2.4,3,4.5,4.9,6.4c-11.2-0.1-22.3-0.1-33.5-0.2c-59.5,0.4-119,0.7-174.9,1.1c-55.8,0.3-107.9,1.8-152.6,2.5c-44.7,0.7-81.8,2.3-107.9,2.9c-26.1,1-40.9,1.6-40.9,1.6s14.9,0.5,40.9,1.5c26.1,0.6,63.3,2.2,107.9,2.9c44.7,0.6,96.7,2.1,152.6,2.5c55.8,0.4,115.3,0.7,174.9,1.1c59.5-0.4,119.1-0.7,174.9-1.1c55.8-0.3,107.8-1.8,152.6-2.4c44.6-0.7,81.9-2.3,107.9-3c26-1,40.9-1.5,40.9-1.5s-14.9-0.6-40.9-1.6C898.9,639.9,867.5,638.6,830.1,637.8z M501.2,301.9l-467.7,9l467.7,9V301.9z M870.2,352.2l-165,9l165,9V352.2z M660.2,698.1v-18l-528.1,9L660.2,698.1z"/></g><g></g><g></g><g></g><g></g><g></g><g></g><g></g><g></g><g></g><g></g><g></g><g></g><g></g><g></g><g></g></g>
</svg>